<?xml version="1.0" encoding="UTF-8" standalone="no"?>
<!-- Generator: Adobe Illustrator 18.1.1, SVG Export Plug-In . SVG Version: 6.00 Build 0)  -->

<svg
   version="1.1"
   id="Layer_1"
   x="0px"
   y="0px"
   viewBox="0 0 280.00001 58"
   enable-background="new 0 0 595.3 841.9"
   xml:space="preserve"
   sodipodi:docname="hispantic.svg"
   inkscape:version="1.4.4 (dcaf3e7d9e, 2026-05-05)"
   width="280"
   height="58"
   inkscape:export-filename="../hispantic_logo.jpg"
   inkscape:export-xdpi="300"
   inkscape:export-ydpi="300"
   xmlns:inkscape="http://www.inkscape.org/namespaces/inkscape"
   xmlns:sodipodi="http://sodipodi.sourceforge.net/DTD/sodipodi-0.dtd"
   xmlns="http://www.w3.org/2000/svg"
   xmlns:svg="http://www.w3.org/2000/svg"><defs
   id="defs425" /><sodipodi:namedview
   id="namedview423"
   pagecolor="#ffffff"
   bordercolor="#666666"
   borderopacity="1.0"
   inkscape:showpageshadow="2"
   inkscape:pageopacity="0.0"
   inkscape:pagecheckerboard="0"
   inkscape:deskcolor="#d1d1d1"
   showgrid="false"
   inkscape:zoom="1.8315714"
   inkscape:cx="141.95461"
   inkscape:cy="63.060605"
   inkscape:window-width="1865"
   inkscape:window-height="1022"
   inkscape:window-x="55"
   inkscape:window-y="34"
   inkscape:window-maximized="1"
   inkscape:current-layer="Layer_1" />



















<g
   id="g360"
   transform="matrix(0.997151,0,0,0.99145299,-160.64103,-120.95726)"
   inkscape:export-filename="/home/elliot/Documents/01.Webs/04.Hispantic.com/logo.png"
   inkscape:export-xdpi="300"
   inkscape:export-ydpi="300"
   style="stroke-width:1.00574">
	<path
   fill="#ffffff"
   d="m 378.4,131.8 h -23.6 c -2.1,0 -3.8,1.7 -3.8,3.8 0,2.1 1.7,3.8 3.8,3.8 h 8 v 37.1 c 0,2.1 1.7,3.8 3.8,3.8 2.1,0 3.8,-1.7 3.8,-3.8 v -37.1 h 8 c 2.1,0 3.8,-1.7 3.8,-3.8 0,-2.2 -1.7,-3.8 -3.8,-3.8 z"
   id="path340"
   style="fill:#214478;stroke-width:1.00574" />
	<path
   fill="#ffffff"
   d="m 202.6,132 c -2.1,0 -3.8,1.7 -3.8,3.8 v 40.8 c 0,2.1 1.7,3.8 3.8,3.8 2.1,0 3.8,-1.7 3.8,-3.8 v -40.8 c 0,-2.1 -1.7,-3.8 -3.8,-3.8 z"
   id="path342"
   style="fill:#214478;stroke-width:1.00574" />
	<path
   fill="#ffffff"
   d="m 391.6,131.8 c -2.1,0 -3.8,1.7 -3.8,3.8 v 40.8 c 0,2.1 1.7,3.8 3.8,3.8 2.1,0 3.8,-1.7 3.8,-3.8 v -40.8 c 0,-2.1 -1.7,-3.8 -3.8,-3.8 z"
   id="path344"
   style="fill:#214478;stroke-width:1.00574" />
	<path
   fill="#ffffff"
   d="m 187.4,132 c -2.1,0 -3.8,1.7 -3.8,3.8 v 16.9 h -14.9 v -16.9 c 0,-2.1 -1.7,-3.8 -3.8,-3.8 -2.1,0 -3.8,1.7 -3.8,3.8 v 40.9 c 0,2.1 1.7,3.8 3.8,3.8 2.1,0 3.8,-1.7 3.8,-3.8 v -16.5 h 14.9 v 16.5 c 0,2.1 1.7,3.8 3.8,3.8 2.1,0 3.8,-1.7 3.8,-3.8 v -40.9 c 0,-2.1 -1.7,-3.8 -3.8,-3.8 z"
   id="path346"
   style="fill:#214478;stroke-width:1.00574" />
	<path
   fill="#ffffff"
   d="M 221.6,139.5 H 232 c 0.9,0 1.7,0.8 1.7,1.9 0,2.1 1.6,3.8 3.5,3.8 1.9,0 3.5,-1.7 3.5,-3.8 0,-5.2 -3.9,-9.4 -8.7,-9.4 h -10.4 c -4.8,0 -8.7,4.2 -8.7,9.3 v 5.6 c 0,3.4 1.6,6.4 4.8,8.8 2.3,1.7 5.2,3 7.9,4.2 3.4,1.5 8,3.6 8,5.5 v 5.6 c 0,1 -0.8,1.8 -1.7,1.8 h -10.4 c -0.9,0 -1.7,-0.8 -1.7,-1.9 0,-2.1 -1.6,-3.8 -3.5,-3.8 -1.9,0 -3.5,1.7 -3.5,3.8 0,5.2 3.9,9.4 8.7,9.4 h 10.4 c 4.8,0 8.7,-4.2 8.7,-9.4 v -5.6 c 0,-3.3 -1.6,-6.1 -4.7,-8.3 -2.2,-1.6 -5,-2.8 -7.6,-4 -3.8,-1.7 -8.5,-3.8 -8.5,-6.1 v -5.6 c 0.1,-0.9 0.8,-1.8 1.8,-1.8 z"
   id="path348"
   style="fill:#214478;stroke-width:1.00574" />
	<path
   fill="#ffffff"
   d="m 427.9,167.3 c -2.1,0 -3.8,1.7 -3.8,3.8 0,1 -0.8,1.8 -1.8,1.8 h -11.2 c -1,0 -1.9,-0.8 -1.9,-1.9 v -29.6 c 0,-1 0.8,-1.8 1.8,-1.8 h 11.2 c 1,0 1.9,0.8 1.9,1.9 0,2.1 1.7,3.8 3.8,3.8 2.1,0 3.8,-1.7 3.8,-3.8 0,-5.2 -4.2,-9.4 -9.4,-9.4 h -11.2 c -5.1,0 -9.3,4.2 -9.3,9.3 V 171 c 0,5.2 4.2,9.4 9.4,9.4 h 11.2 c 5.1,0 9.3,-4.2 9.3,-9.3 0,-2.1 -1.7,-3.8 -3.8,-3.8 z"
   id="path350"
   style="fill:#214478;stroke-width:1.00574" />
	<path
   fill="#ffffff"
   d="m 303.2,140.8 c -0.7,-5.2 -4.2,-8.7 -8.7,-8.7 0,0 -0.1,0 -0.1,0 h -0.8 c -4.4,0 -7.9,3.6 -8.6,8.7 l -7.2,34.8 c -0.4,2 0.7,4 2.6,4.5 1.8,0.5 3.7,-0.8 4.1,-2.8 l 7.2,-35 c 0,-0.1 0,-0.2 0.1,-0.3 0,-0.4 0.4,-2.3 1.9,-2.3 0,0 0.1,0 0.1,0 h 0.8 c 1.4,0 1.8,1.5 1.9,2.4 0,0.1 0,0.2 0.1,0.3 l 7.2,35 c 0.4,1.7 1.8,2.9 3.3,2.9 0.3,0 0.5,0 0.8,-0.1 1.8,-0.5 3,-2.5 2.6,-4.5 z"
   id="path352"
   style="fill:#214478;stroke-width:1.00574" />
	<path
   fill="#ffffff"
   d="m 267.5,132 h -16.1 c -1.7,0 -3.1,1.2 -3.5,2.8 -0.1,0.4 -0.2,0.8 -0.2,1.2 v 40.7 c 0,2.1 1.6,3.8 3.6,3.8 2,0 3.6,-1.7 3.6,-3.8 v -16.4 h 12.6 c 5,0 9,-4.2 9,-9.3 v -9.5 c 0,-5.3 -4,-9.5 -9,-9.5 z m 1.8,18.9 c 0,1 -0.8,1.8 -1.8,1.8 h -12.6 v -13.2 h 12.6 c 1,0 1.8,0.8 1.8,1.9 z"
   id="path354"
   style="fill:#214478;stroke-width:1.00574" />
	<path
   fill="#ffffff"
   d="m 346.4,176.2 v -40.5 c 0,-2.1 -1.7,-3.8 -3.8,-3.8 -2.1,0 -3.8,1.7 -3.8,3.8 v 26 l -15.4,-28 c -1,-1.8 -3.3,-2.5 -5.1,-1.5 -1.3,0.7 -2,2 -1.9,3.4 0,0 0,0 0,0 v 40.9 c 0,2.1 1.7,3.8 3.8,3.8 2.1,0 3.8,-1.7 3.8,-3.8 v -26.3 l 15.4,28 c 0.7,1.2 2,2 3.3,2 0.6,0 1.2,-0.2 1.8,-0.5 1.2,-0.7 1.9,-2 1.9,-3.5 0,0.1 0,0.1 0,0 z"
   id="path356"
   style="fill:#214478;stroke-width:1.00574" />
	<path
   fill="#ffffff"
   d="m 432.1,122 4.9,1.2 4.9,1.2 c 0,0 -2.6,0.9 -4.4,2.7 -1.7,1.8 -2.5,4.5 -2.5,4.5 l -1.4,-4.8 z"
   id="path358"
   style="fill:#214478;stroke-width:1.00574" />
</g>




















</svg>
